<?xml version="1.0" encoding="UTF-8" standalone="no"?>
<!DOCTYPE svg PUBLIC "-//W3C//DTD SVG 1.1//EN"
 "http://www.w3.org/Graphics/SVG/1.1/DTD/svg11.dtd">
<!-- Generated by graphviz version 2.47.0 (20210316.0004)
 -->
<!-- Title: dependencies Pages: 1 -->
<svg width="605pt" height="284pt"
 viewBox="0.00 0.00 605.00 284.00" xmlns="http://www.w3.org/2000/svg" xmlns:xlink="http://www.w3.org/1999/xlink">
<g id="graph0" class="graph" transform="scale(1 1) rotate(0) translate(4 280)">
<title>dependencies</title>
<polygon fill="white" stroke="transparent" points="-4,4 -4,-280 601,-280 601,4 -4,4"/>
<text text-anchor="start" x="277.51" y="-42.4" font-family="Times-12" font-weight="bold" font-size="14.00">Legend</text>
<polygon fill="#ffffb3" stroke="transparent" points="64.5,-10 64.5,-30 84.5,-30 84.5,-10 64.5,-10"/>
<text text-anchor="start" x="88.13" y="-15.4" font-family="Times-12" font-size="14.00"> &#160;Declarations</text>
<polygon fill="#8dd3c7" stroke="transparent" points="177.5,-10 177.5,-30 197.5,-30 197.5,-10 177.5,-10"/>
<text text-anchor="start" x="201.23" y="-15.4" font-family="Times-12" font-size="14.00"> &#160;Module</text>
<polygon fill="#80b1d3" stroke="transparent" points="263.5,-10 263.5,-30 283.5,-30 283.5,-10 263.5,-10"/>
<text text-anchor="start" x="287.28" y="-15.4" font-family="Times-12" font-size="14.00"> &#160;Bootstrap</text>
<polygon fill="#fdb462" stroke="transparent" points="360.5,-10 360.5,-30 380.5,-30 380.5,-10 360.5,-10"/>
<text text-anchor="start" x="384.17" y="-15.4" font-family="Times-12" font-size="14.00"> &#160;Providers</text>
<polygon fill="#fb8072" stroke="transparent" points="456.5,-10 456.5,-30 476.5,-30 476.5,-10 456.5,-10"/>
<text text-anchor="start" x="480.23" y="-15.4" font-family="Times-12" font-size="14.00"> &#160;Exports</text>
<g id="clust1" class="cluster">
<title>cluster_AppModule</title>
<polygon fill="none" stroke="black" stroke-dasharray="1,5" points="8,-70 8,-268 589,-268 589,-70 8,-70"/>
</g>
<g id="clust6" class="cluster">
<title>cluster_AppModule_imports</title>
<polygon fill="none" stroke="black" points="437,-78 437,-130 581,-130 581,-78 437,-78"/>
</g>
<g id="clust8" class="cluster">
<title>cluster_AppModule_bootstrap</title>
<polygon fill="none" stroke="black" points="221,-208 221,-260 345,-260 345,-208 221,-208"/>
</g>
<g id="clust2" class="cluster">
<title>cluster_AppModule_declarations</title>
<polygon fill="none" stroke="black" points="16,-78 16,-130 429,-130 429,-78 16,-78"/>
</g>
<!-- ActividadComponent -->
<g id="node1" class="node">
<title>ActividadComponent</title>
<polygon fill="#ffffb3" stroke="black" points="421.04,-122 284.96,-122 284.96,-86 421.04,-86 421.04,-122"/>
<text text-anchor="middle" x="353" y="-99.8" font-family="Times,serif" font-size="14.00">ActividadComponent</text>
</g>
<!-- AppModule -->
<g id="node4" class="node">
<title>AppModule</title>
<polygon fill="#8dd3c7" stroke="black" points="324.66,-187 321.66,-191 300.66,-191 297.66,-187 241.34,-187 241.34,-151 324.66,-151 324.66,-187"/>
<text text-anchor="middle" x="283" y="-164.8" font-family="Times,serif" font-size="14.00">AppModule</text>
</g>
<!-- ActividadComponent&#45;&gt;AppModule -->
<g id="edge1" class="edge">
<title>ActividadComponent&#45;&gt;AppModule</title>
<path fill="none" stroke="black" d="M304.78,-122.11C304.78,-122.11 304.78,-140.99 304.78,-140.99"/>
<polygon fill="black" stroke="black" points="301.28,-140.99 304.78,-150.99 308.28,-140.99 301.28,-140.99"/>
</g>
<!-- AppComponent -->
<g id="node2" class="node">
<title>AppComponent</title>
<polygon fill="#ffffb3" stroke="black" points="266.94,-122 161.06,-122 161.06,-86 266.94,-86 266.94,-122"/>
<text text-anchor="middle" x="214" y="-99.8" font-family="Times,serif" font-size="14.00">AppComponent</text>
</g>
<!-- AppComponent&#45;&gt;AppModule -->
<g id="edge2" class="edge">
<title>AppComponent&#45;&gt;AppModule</title>
<path fill="none" stroke="black" d="M253.95,-122.11C253.95,-122.11 253.95,-140.99 253.95,-140.99"/>
<polygon fill="black" stroke="black" points="250.45,-140.99 253.95,-150.99 257.45,-140.99 250.45,-140.99"/>
</g>
<!-- SearchComponent -->
<g id="node3" class="node">
<title>SearchComponent</title>
<polygon fill="#ffffb3" stroke="black" points="143.92,-122 24.08,-122 24.08,-86 143.92,-86 143.92,-122"/>
<text text-anchor="middle" x="84" y="-99.8" font-family="Times,serif" font-size="14.00">SearchComponent</text>
</g>
<!-- SearchComponent&#45;&gt;AppModule -->
<g id="edge3" class="edge">
<title>SearchComponent&#45;&gt;AppModule</title>
<path fill="none" stroke="black" d="M84,-122.11C84,-141.34 84,-169 84,-169 84,-169 231.28,-169 231.28,-169"/>
<polygon fill="black" stroke="black" points="231.28,-172.5 241.28,-169 231.28,-165.5 231.28,-172.5"/>
</g>
<!-- AppComponent  -->
<g id="node6" class="node">
<title>AppComponent </title>
<polygon fill="#80b1d3" stroke="black" points="337.44,-252 228.56,-252 228.56,-216 337.44,-216 337.44,-252"/>
<text text-anchor="middle" x="283" y="-229.8" font-family="Times,serif" font-size="14.00">AppComponent </text>
</g>
<!-- AppModule&#45;&gt;AppComponent  -->
<g id="edge5" class="edge">
<title>AppModule&#45;&gt;AppComponent </title>
<path fill="none" stroke="black" stroke-dasharray="1,5" d="M283,-187.11C283,-187.11 283,-205.99 283,-205.99"/>
<polygon fill="black" stroke="black" points="279.5,-205.99 283,-215.99 286.5,-205.99 279.5,-205.99"/>
</g>
<!-- AppRoutingModule -->
<g id="node5" class="node">
<title>AppRoutingModule</title>
<polygon fill="#8dd3c7" stroke="black" points="573.27,-122 570.27,-126 549.27,-126 546.27,-122 444.73,-122 444.73,-86 573.27,-86 573.27,-122"/>
<text text-anchor="middle" x="509" y="-99.8" font-family="Times,serif" font-size="14.00">AppRoutingModule</text>
</g>
<!-- AppRoutingModule&#45;&gt;AppModule -->
<g id="edge4" class="edge">
<title>AppRoutingModule&#45;&gt;AppModule</title>
<path fill="none" stroke="black" d="M509,-122.11C509,-141.34 509,-169 509,-169 509,-169 334.72,-169 334.72,-169"/>
<polygon fill="black" stroke="black" points="334.72,-165.5 324.72,-169 334.72,-172.5 334.72,-165.5"/>
</g>
</g>
</svg>
